<svg width="512" height="512" viewBox="0 0 512 512" xmlns="http://www.w3.org/2000/svg" role="img" aria-label="WOLA Global logo">
  <defs>
    <style>
      .serif { font-family: 'Times New Roman', Georgia, serif; }
    </style>
  </defs>

  <circle cx="256" cy="256" r="250" fill="#000000" stroke="#ffffff" stroke-width="4"/>

  <text x="70" y="290" class="serif" font-size="110" font-weight="700" fill="#3f0a57" letter-spacing="3">W</text>
  <text x="205" y="290" class="serif" font-size="110" font-weight="700" fill="#3f0a57" letter-spacing="3">L</text>
  <text x="350" y="290" class="serif" font-size="110" font-weight="700" fill="#3f0a57" letter-spacing="3">A</text>

  <g transform="translate(225 185)">
    <path d="M30 0 L55 15 L63 35 L58 56 L70 72 L66 97 L47 122 L41 145 L25 146 L11 133 L5 108 L2 82 L0 53 L8 30 Z"
      fill="#c4ad5f" stroke="#3f0a57" stroke-width="2"/>
    <path d="M54 8 L73 3 L62 18 L77 19 L66 29 L53 27 Z" fill="#c4ad5f" stroke="#3f0a57" stroke-width="2"/>
    <path d="M20 138 L35 154 L55 163 L38 176 L21 169 L10 152 Z" fill="#c4ad5f" stroke="#3f0a57" stroke-width="2"/>
  </g>
</svg>
